<mxfile host="app.diagrams.net" modified="2023-06-19T00:19:05.936Z" agent="Mozilla/5.0 (Macintosh; Intel Mac OS X 10_15_7) AppleWebKit/605.1.15 (KHTML, like Gecko) Version/16.5 Safari/605.1.15" version="21.5.0" etag="Wer6x0De7zFnKc2VSh_f" type="github">
  <diagram name="第 1 页" id="6fT6JXEwewGPX3J2852l">
    <mxGraphModel>
      <root>
        <mxCell id="0" />
        <mxCell id="1" parent="0" />
      </root>
    </mxGraphModel>
  </diagram>
</mxfile>
